<mxfile host="Electron" modified="2023-11-13T21:05:26.885Z" agent="Mozilla/5.0 (Windows NT 10.0; Win64; x64) AppleWebKit/537.36 (KHTML, like Gecko) draw.io/22.0.2 Chrome/114.0.5735.289 Electron/25.8.4 Safari/537.36" etag="mVz2OVnPdh29W8H31N0i" version="22.0.2" type="device">
  <diagram name="Page-1" id="_ubVQK6Om3ocrqazjB5S">
    <mxGraphModel dx="1036" dy="614" grid="1" gridSize="10" guides="1" tooltips="1" connect="1" arrows="1" fold="1" page="1" pageScale="1" pageWidth="827" pageHeight="1169" math="0" shadow="0">
      <root>
        <mxCell id="0" />
        <mxCell id="1" parent="0" />
        <mxCell id="RLoHK2-4_eVzej6Y8hfp-1" value="&lt;p style=&quot;margin:0px;margin-top:4px;text-align:center;&quot;&gt;&lt;b&gt;CourseRegistrationSystem&lt;/b&gt;&lt;/p&gt;&lt;hr size=&quot;1&quot;/&gt;&lt;p style=&quot;margin:0 0 0 4px;line-height:1.6;&quot;&gt;+ CourseRegistrationSystem(): &lt;/p&gt;&lt;hr size=&quot;1&quot;/&gt;&lt;p style=&quot;margin:0 0 0 4px;line-height:1.6;&quot;&gt;- input: Scanner&lt;br/&gt;- choice: int&lt;/p&gt;&lt;hr size=&quot;1&quot;/&gt;&lt;p style=&quot;margin:0 0 0 4px;line-height:1.6;&quot;&gt;+ mainMenu(Department): void&lt;br/&gt;+ exitProgram(): void&lt;br/&gt;+ readInputParameters(): void&lt;br/&gt;+ printMenu(String): void&lt;br/&gt;+ start(): void&lt;br/&gt;+ loginMenu(Department): void&lt;br/&gt;+ studentMenu(Student): void&lt;br/&gt;+ getInput(): int&lt;br/&gt;+ advisorMenu(Advisor): void&lt;br/&gt;+ courseSelectionMenu(Student): void&lt;br/&gt;+ saveJSON(): void&lt;/p&gt;" style="verticalAlign=top;align=left;overflow=fill;fontSize=14;fontFamily=Helvetica;html=1;rounded=0;shadow=0;comic=0;labelBackgroundColor=none;strokeWidth=1;" vertex="1" parent="1">
          <mxGeometry x="278" y="396" width="271" height="377" as="geometry" />
        </mxCell>
      </root>
    </mxGraphModel>
  </diagram>
</mxfile>
